<svg xmlns="http://www.w3.org/2000/svg" width="50.794" height="35.603" viewBox="0 0 50.794 35.603">
  <path id="Path_2" data-name="Path 2" d="M81.832,86.292a.853.853,0,0,0-1.074.176C78.076,88.729,70.109,91.2,67.725,87c-.655-1.2-1.185-2.222-1.7-2.979-1.494-2.2-3.9-.375-5.906-.991-.966-.3-1.814-1.126-2.443-3.108-.278-.874-.052-1.141.374-1.286.365-.124,1.908-.653,2.42-.857,3.873-1.535,1.6-1.851,5.626-3.928,0,0-.232-1.486-.3-2.225-.12-1.369.17-1.506.945-.546.612.758,1.149,1.417,1.149,1.417.225.264.432.313.525-.111l.529-2.75c.254-1.553.735-1.581,1.509-.17A17.136,17.136,0,0,0,75,75.132c2.784,2.491,2.4,6.547.409,9.817-.283.445-.342.787-.1,1.1.2.247.546.386,1.143.17a10.515,10.515,0,0,0,6.3-13.813,14.7,14.7,0,0,0-12-9.176,14.316,14.316,0,0,0-8.324,1.6,8.257,8.257,0,0,0-.7-1.695c-1.671-3.031-5.18-4.3-7.838-2.835-2.28,1.2-3.648,4.6-1.79,8.141A6.79,6.79,0,0,0,55.5,71.478a11.95,11.95,0,0,0-1.749,5.183c-.027.263-.1.413-.271.43s-.281-.133-.366-.477a8.521,8.521,0,0,1,.3-4.111,7.683,7.683,0,0,1-4.187-8.181H36.979c-2.269,0-3.281,2.151-3.281,3.646h0c0,1.9.96,3.7,3.281,3.7h9.055c.66,0,.738.431.38.747l-4.225,3.7a2.716,2.716,0,0,0-1.068,2.543c.148,1.141,1.015,2.154,3.377,2.154h.748c2.6-.013,4.438.945,4.438,3.583,0,1.906-1.535,3.733-4.426,3.752-2.508.016-4.469-1.043-6.552-3.213-1.229-1.281-2.936-1.491-4.612.116-1.318,1.262-2.028,2.928-.538,4.682a15.744,15.744,0,0,0,11.783,5.559,15.222,15.222,0,0,0,11.686-5.7,14.731,14.731,0,0,0,11.616,5.69,15.227,15.227,0,0,0,13.172-7.6c.266-.479.513-1.1.018-1.4" transform="translate(-32.722 -59.688)" fill="#e00000"/>
</svg>
