<svg xmlns="http://www.w3.org/2000/svg" viewBox="0 0 142.81 201.4"><defs><style>.a{fill:#fff;}.b{fill:#e00000;}.c{fill:#070606;}</style></defs><title>logo</title><path class="a" d="M0,185.39V16A16,16,0,0,1,16,0H126.8a16,16,0,0,1,16,16h0V185.39a16,16,0,0,1-16,16H16a16,16,0,0,1-16-16" transform="translate(0 0)"/><path class="b" d="M118.81,93.68a1.71,1.71,0,0,0-2.15.35c-5.36,4.52-21.29,9.45-26,1.06-1.31-2.4-2.37-4.45-3.4-6-3-4.39-7.8-.75-11.81-2-1.93-.59-3.62-2.25-4.88-6.21-.55-1.75-.1-2.28.75-2.57s3.81-1.31,4.84-1.71c7.74-3.07,3.2-3.7,11.24-7.86,0,0-.46-3-.59-4.44-.24-2.74.34-3,1.89-1.09L91,66.1c.45.53.86.63,1-.22l1.06-5.5c.51-3.1,1.47-3.16,3-.34,2.29,4.17,3.58,6.41,9.07,11.33s4.8,13.08.82,19.62c-.56.89-.68,1.57-.19,2.2s1.09.77,2.29.34c10-3.6,17.45-15.08,12.59-27.61a29.4,29.4,0,0,0-24-18.35A28.67,28.67,0,0,0,80,50.77a16.62,16.62,0,0,0-1.4-3.38c-3.34-6.06-10.36-8.6-15.67-5.67-4.56,2.4-7.29,9.2-3.58,16.27a13.6,13.6,0,0,0,6.79,6.08,23.75,23.75,0,0,0-3.5,10.36c-.06.52-.2.82-.54.86s-.57-.27-.74-1c-.92-3.73.59-8.15.61-8.21a15.36,15.36,0,0,1-8.37-16.36H29.15c-4.54,0-6.56,4.3-6.56,7.29h0c0,3.79,1.92,7.39,6.56,7.39h18.1c1.32,0,1.47.87.76,1.5l-8.45,7.4a5.42,5.42,0,0,0-2.13,5.08c.3,2.28,2,4.31,6.75,4.31h1.49c5.2,0,8.87,1.89,8.87,7.16,0,3.81-3.07,7.46-8.84,7.5-5,0-8.94-2.08-13.1-6.42-2.46-2.56-5.87-3-9.22.23-2.64,2.52-4.06,5.85-1.08,9.36,2.06,2.42,10.19,11.11,23.56,11.11a30.44,30.44,0,0,0,23.36-11.39,29.45,29.45,0,0,0,23.22,11.38,30.45,30.45,0,0,0,26.33-15.19c.53-1,1-2.2,0-2.79" transform="translate(0 0)"/><path class="b" d="M100.74,147.22a5.3,5.3,0,0,0,5.29-5H95.45a5.32,5.32,0,0,0,5.29,5" transform="translate(0 0)"/><path class="c" d="M23.94,175.92v-.48h-.7v3.78h.7V177c0-.63.28-1,.74-1a.88.88,0,0,1,.49.15l.29-.66a.91.91,0,0,0-.58-.16,1.07,1.07,0,0,0-.94.56" transform="translate(0 0)"/><path class="c" d="M27.58,175.35a1.9,1.9,0,0,0-1.87,1.93v.05a1.94,1.94,0,0,0,1.91,2h.07a2,2,0,0,0,1.45-.56l-.37-.48a1.44,1.44,0,0,1-1.06.42,1.28,1.28,0,0,1-1.29-1.18h3a2.11,2.11,0,0,0,0-.25,1.86,1.86,0,0,0-1.81-1.91h-.05M26.44,177a1.19,1.19,0,0,1,1.15-1.1,1.14,1.14,0,0,1,1.13,1.1Z" transform="translate(0 0)"/><path class="c" d="M32.14,176a1.41,1.41,0,0,1,1,.37l.4-.5a2,2,0,1,0,0,2.91l-.37-.51a1.41,1.41,0,0,1-1,.39,1.33,1.33,0,0,1,0-2.66" transform="translate(0 0)"/><path class="c" d="M35.92,175.35a2,2,0,1,0,1.93,2v-.06a1.94,1.94,0,0,0-1.9-2h0m0,3.31a1.33,1.33,0,1,1,1.22-1.22,1.33,1.33,0,0,1-1.22,1.22" transform="translate(0 0)"/><path class="c" d="M40.77,175.35a1.32,1.32,0,0,0-1.14.56v-.47h-.7v3.78h.7V177a1,1,0,1,1,1.9-.12v2.32h.7v-2.31A1.41,1.41,0,0,0,41,175.36h-.2" transform="translate(0 0)"/><path class="c" d="M45.35,175.35a1.32,1.32,0,0,0-1.14.56v-.47h-.7v3.78h.7V177a1,1,0,0,1,.89-1,1,1,0,0,1,1,.89.24.24,0,0,1,0,.12v2.2h.7v-2.31a1.41,1.41,0,0,0-1.26-1.55h-.2" transform="translate(0 0)"/><path class="c" d="M50.69,177.53a1,1,0,1,1-1.95.25,1,1,0,0,1,0-.25v-2.09H48v2.15a1.68,1.68,0,0,0,3.36,0v-2.15h-.7Z" transform="translate(0 0)"/><path class="c" d="M54.27,175.35a1.91,1.91,0,0,0-1.87,1.93v.05a1.94,1.94,0,0,0,1.91,2h.07a2,2,0,0,0,1.45-.56l-.37-.48a1.43,1.43,0,0,1-1.05.42,1.28,1.28,0,0,1-1.3-1.18h3a.71.71,0,0,0,0-.25,1.86,1.86,0,0,0-1.81-1.91h0M53.13,177a1.2,1.2,0,0,1,1.15-1.1,1.16,1.16,0,0,1,1.14,1.1Z" transform="translate(0 0)"/><path class="c" d="M61.81,176a1.57,1.57,0,0,0-1.32-.66,2,2,0,0,0,0,4,1.55,1.55,0,0,0,1.32-.68v.59h.7V173.8h-.7Zm-1.22,2.65a1.35,1.35,0,0,1-1.23-1.43,1.23,1.23,0,1,1,1.23,1.43" transform="translate(0 0)"/><path class="c" d="M63.54,175.42h.52l.41-1.62h-.7Z" transform="translate(0 0)"/><path class="c" d="M68,177.53a1,1,0,0,1-2,.23.89.89,0,0,1,0-.23v-2.09h-.7v2.15a1.68,1.68,0,1,0,3.35,0v-2.15H68Z" transform="translate(0 0)"/><path class="c" d="M71.44,178.66c-.34,0-.52-.2-.52-.6v-2H72v-.62H70.91v-.93h-.69v.94h-.63v.62h.62v2a1.07,1.07,0,0,0,1.14,1.23,1.3,1.3,0,0,0,.9-.33l-.32-.53a.62.62,0,0,1-.49.2" transform="translate(0 0)"/><rect class="c" x="73.09" y="175.44" width="0.7" height="3.78"/><path class="c" d="M73.44,173.92a.44.44,0,1,0,.43.43h0a.43.43,0,0,0-.43-.43" transform="translate(0 0)"/><rect class="c" x="75.14" y="173.8" width="0.7" height="5.42"/><path class="c" d="M77.54,173.92a.44.44,0,1,0,.43.43h0a.43.43,0,0,0-.43-.43" transform="translate(0 0)"/><rect class="c" x="77.19" y="175.44" width="0.7" height="3.78"/><path class="c" d="M80.67,178.66c-.34,0-.52-.2-.52-.6v-2h1.06v-.62H80.14v-.93h-.7v.94h-.63v.62h.62v2a1.07,1.07,0,0,0,1.14,1.23,1.33,1.33,0,0,0,.91-.33l-.33-.53a.59.59,0,0,1-.48.2" transform="translate(0 0)"/><path class="c" d="M90.38,175.35a1.56,1.56,0,0,0-1.31.67v-.58h-.7v5.32h.7v-2.1a1.55,1.55,0,0,0,1.31.65,2,2,0,0,0,0-4m-.08,3.32a1.33,1.33,0,1,1,1.21-1.44.41.41,0,0,1,0,.11,1.27,1.27,0,0,1-1.17,1.33h0" transform="translate(0 0)"/><path class="c" d="M95.89,177.53a1,1,0,0,1-2,.25,1,1,0,0,1,0-.25v-2.09h-.7v2.15a1.68,1.68,0,0,0,3.36,0v-2.15h-.7Z" transform="translate(0 0)"/><path class="c" d="M99.9,175.35a1.56,1.56,0,0,0-1.31.67V173.8h-.7v5.42h.7v-.55a1.54,1.54,0,0,0,1.31.64,2,2,0,0,0,0-4m-.08,3.31a1.33,1.33,0,1,1,1.21-1.44.49.49,0,0,1,0,.12,1.25,1.25,0,0,1-1.17,1.32h-.05" transform="translate(0 0)"/><rect class="c" x="102.82" y="173.8" width="0.7" height="5.42"/><rect class="c" x="104.87" y="175.44" width="0.7" height="3.78"/><path class="c" d="M105.22,173.92a.44.44,0,1,0,0,.87.44.44,0,0,0,.43-.44h0a.44.44,0,0,0-.43-.43" transform="translate(0 0)"/><path class="c" d="M109.79,176a1.54,1.54,0,0,0-1.32-.66,2,2,0,0,0,0,4,1.56,1.56,0,0,0,1.32-.68v2.13h.7v-5.32h-.7Zm-1.22,2.65a1.33,1.33,0,1,1,1.22-1.22,1.33,1.33,0,0,1-1.22,1.22" transform="translate(0 0)"/><path class="c" d="M114.45,177.53a1,1,0,0,1-.86,1.1,1,1,0,0,1-1.1-.85,1,1,0,0,1,0-.25v-2.09h-.7v2.15a1.68,1.68,0,0,0,3.36,0v-2.15h-.7Z" transform="translate(0 0)"/><path class="c" d="M118,175.35a1.9,1.9,0,0,0-1.87,1.93v.05a1.94,1.94,0,0,0,1.91,2h.07a2,2,0,0,0,1.45-.56l-.37-.48a1.44,1.44,0,0,1-1.06.42,1.28,1.28,0,0,1-1.29-1.18h3a2.11,2.11,0,0,0,0-.25,1.86,1.86,0,0,0-1.81-1.91h0M116.89,177a1.19,1.19,0,0,1,1.15-1.1,1.14,1.14,0,0,1,1.13,1.1Z" transform="translate(0 0)"/><rect class="c" x="23.24" y="168.68" width="96.34" height="0.6"/><path class="c" d="M26.8,28.77h3.46V25.88H26.8v-2H31V20.78H23.23V31.47H26.8Z" transform="translate(0 0)"/><path class="c" d="M48.51,23.72a5.11,5.11,0,0,1,1-.14c1.27,0,1.68.68,1.68,2.1v5.79h3.56V25.34c0-3.45-2-4.84-5.2-4.84a16.52,16.52,0,0,0-4.63.73V31.47h3.56Z" transform="translate(0 0)"/><path class="c" d="M67.21,26.15c0-3.71-2.09-5.65-6.08-5.65-1.12,0-2.69.12-4.26.28V31.46c1.75.17,3.14.3,4.26.3,4,0,6.08-1.93,6.08-5.62m-6.77-2.57a5.76,5.76,0,0,1,1.1-.07c1.42,0,2.15.88,2.15,2.57s-.73,2.65-2.15,2.65a4.49,4.49,0,0,1-1.1-.07Z" transform="translate(0 0)"/><path class="c" d="M73.19,31.76a3.55,3.55,0,0,0,2.88-1.3v1h3.57V20.78H76.07v1a3.55,3.55,0,0,0-2.88-1.3c-2.78,0-4.82,2.33-4.82,5.63s2,5.63,4.82,5.63M74,23.58c1.2,0,2,1,2,2.55s-.79,2.55-2,2.55-2-1-2-2.55.82-2.55,2-2.55" transform="translate(0 0)"/><path class="c" d="M83.92,31.47h3.56v-7.8h2.91V20.78H81v2.89h2.9Z" transform="translate(0 0)"/><rect class="c" x="91.76" y="20.78" width="3.56" height="10.69"/><path class="c" d="M113.3,23.72a5.11,5.11,0,0,1,1-.14c1.27,0,1.68.68,1.68,2.1v5.79h3.56V25.34c0-3.45-2-4.84-5.2-4.84a16.52,16.52,0,0,0-4.63.73V31.47h3.56Z" transform="translate(0 0)"/><path class="c" d="M27.57,128a5.23,5.23,0,0,1,1-.16c1.32,0,1.82.83,1.82,2.56v7h4.33V130a7.38,7.38,0,0,0-.22-1.93,4.9,4.9,0,0,1,1.26-.22c1.3,0,1.82.76,1.82,2.56v7H42v-7.56c0-3.88-1.8-5.76-5.5-5.76a9.87,9.87,0,0,0-4.05.84,7.42,7.42,0,0,0-3.75-.86,20.34,20.34,0,0,0-5.42.88V137.4h4.34Z" transform="translate(0 0)"/><rect class="c" x="44.51" y="124.4" width="4.33" height="13"/><path class="c" d="M51.63,124.4v13h8.7v-3.72H56V124.4Z" transform="translate(0 0)"/><path class="c" d="M71.3,133.68H66.94V124.4H62.6v13h8.7Z" transform="translate(0 0)"/><rect class="c" x="73.57" y="124.4" width="4.33" height="13"/><path class="c" d="M100.19,128a5.32,5.32,0,0,1,1.26-.18c1.54,0,2,.83,2,2.56v7h4.33V130c0-4.2-2.45-5.9-6.33-5.9a20.68,20.68,0,0,0-5.63.89V137.4h4.33Z" transform="translate(0 0)"/><path class="c" d="M120,133.18c0-4.68-5.91-3.79-5.91-5,0-.45.52-.63,1.24-.63a9.32,9.32,0,0,1,3.33.74l1-3.42a13.5,13.5,0,0,0-4.31-.78c-3.08,0-5.53,1.36-5.53,4.37,0,4.49,5.89,3.69,5.89,5,0,.57-.71.8-1.67.8a8.92,8.92,0,0,1-3.55-.8l-1,3.53a12.58,12.58,0,0,0,4.33.8c3.29,0,6.15-1.45,6.15-4.59" transform="translate(0 0)"/><path class="c" d="M29.67,145.21c-1.47,0-3.63.15-6.43.43v16.2c2.83.29,4.8.46,6.43.46,6,0,9.23-3,9.23-8.52s-3.19-8.56-9.23-8.56m.63,12.63a8.29,8.29,0,0,1-1.72-.11l-.08,0v-7.95l.08,0a7.66,7.66,0,0,1,1.72-.11c2.23,0,3.41,1.4,3.41,4s-1.18,4.18-3.41,4.18" transform="translate(0 0)"/><path class="c" d="M66.08,161.86v-16.2H60.81v1.73l-.18-.21a5.36,5.36,0,0,0-4.35-2c-4.22,0-7.28,3.59-7.28,8.54s3.06,8.54,7.28,8.54a5.36,5.36,0,0,0,4.35-2l.18-.21v1.73Zm-8.49-4.09c-1.86,0-3.16-1.65-3.16-4s1.3-4,3.16-4,3.14,1.62,3.14,4-1.26,4-3.14,4" transform="translate(0 0)"/><path class="c" d="M93.89,161.86v-9.45c0-4.82-2.24-7.17-6.85-7.17A12.33,12.33,0,0,0,82,146.3l0,0-.05,0a9.3,9.3,0,0,0-4.68-1.09,26,26,0,0,0-6.73,1.1v15.55h5.26V150l.08,0a6.76,6.76,0,0,1,1.34-.19c1.68,0,2.4,1,2.4,3.33v8.78h5.26v-9.3a8.92,8.92,0,0,0-.27-2.41l0-.1.09,0a6.32,6.32,0,0,1,1.62-.28c1.68,0,2.4,1,2.4,3.33v8.79Z" transform="translate(0 0)"/><path class="c" d="M114.56,151.42c-1.2-.31-2.07-.53-2.07-1.14,0-.41.29-.89,1.66-.89a11.55,11.55,0,0,1,4.14.89l1.17-4.12a16.87,16.87,0,0,0-5.31-.95c-4.3,0-6.88,2-6.88,5.43,0,3.59,3,4.43,5.25,5,1.23.34,2.19.61,2.19,1.27s-.8,1.12-2.2,1.12a11.94,11.94,0,0,1-4.42-1l-1.15,4.25a15.72,15.72,0,0,0,5.35,1c3.7,0,7.66-1.5,7.66-5.7,0-3.82-3.24-4.65-5.39-5.2" transform="translate(0 0)"/><rect class="c" x="98.14" y="149.76" width="5.26" height="12.08"/><path class="c" d="M40.68,152.27h4.67l2-6.71h-5Z" transform="translate(0 0)"/><path class="c" d="M87,137.72c4.15,0,7-2.81,7-6.83A6.66,6.66,0,0,0,87.56,124c-.2,0-.41,0-.61,0-4.16,0-7.07,2.82-7.07,6.86s2.9,6.83,7.07,6.83m0-10a2.86,2.86,0,0,1,2.88,2.85,2.26,2.26,0,0,1,0,.26,2.9,2.9,0,1,1-5.77.49,4,4,0,0,1,0-.49,2.85,2.85,0,0,1,2.58-3.1,1.71,1.71,0,0,1,.32,0" transform="translate(0 0)"/><path class="c" d="M37.72,31.74A5.62,5.62,0,0,0,38,20.51h-.3a5.62,5.62,0,0,0-.37,11.23h.37m0-8a2.15,2.15,0,0,1,2.17,2.16v.19a2.19,2.19,0,0,1-4.36.39,2.54,2.54,0,0,1,0-.39,2.18,2.18,0,0,1,2-2.35h.2" transform="translate(0 0)"/><path class="c" d="M102.51,31.74a5.62,5.62,0,1,0-5.8-5.6A5.46,5.46,0,0,0,102,31.75h.52m0-8a2.15,2.15,0,0,1,2.17,2.16v.19a2.19,2.19,0,0,1-4.36.39,2.54,2.54,0,0,1,0-.39,2.18,2.18,0,0,1,2-2.35h.2" transform="translate(0 0)"/><path class="c" d="M83.71,175.35a1.9,1.9,0,0,0-1.87,1.93v.05a1.94,1.94,0,0,0,1.91,2h.07a2,2,0,0,0,1.45-.56l-.37-.48a1.44,1.44,0,0,1-1.06.42,1.28,1.28,0,0,1-1.29-1.18h3a1.07,1.07,0,0,0,0-.25,1.87,1.87,0,0,0-1.82-1.91h-.05M82.57,177a1.2,1.2,0,0,1,1.15-1.1,1.16,1.16,0,0,1,1.14,1.1Z" transform="translate(0 0)"/><path class="c" d="M84.1,174.78l.78-1h-.82l-.62,1Z" transform="translate(0 0)"/></svg>