<svg xmlns="http://www.w3.org/2000/svg" xmlns:xlink="http://www.w3.org/1999/xlink" width="132.468" height="132.312" viewBox="0 0 132.468 132.312">
  <defs>
    <clipPath id="clip-path">
      <path id="Path_81" data-name="Path 81" d="M0,65.994H132.312V-66.318H0Z" transform="translate(0 66.318)" fill="none"/>
    </clipPath>
    <clipPath id="clip-path-2">
      <rect id="Rectangle_43" data-name="Rectangle 43" width="183.869" height="165.674" fill="none"/>
    </clipPath>
    <clipPath id="clip-path-3">
      <rect id="Rectangle_44" data-name="Rectangle 44" width="144.606" height="144.606" fill="none"/>
    </clipPath>
  </defs>
  <g id="Group_89" data-name="Group 89" transform="translate(0 66.318)">
    <g id="Group_56" data-name="Group 56" transform="translate(0 -66.318)" clip-path="url(#clip-path)">
      <g id="Group_49" data-name="Group 49" transform="translate(-22.682 -18.693)">
        <g id="Group_48" data-name="Group 48" clip-path="url(#clip-path-2)">
          <g id="Group_47" data-name="Group 47" transform="translate(0 0)">
            <rect id="Rectangle_42" data-name="Rectangle 42" width="183.869" height="165.674" fill="none"/>
          </g>
        </g>
      </g>
      <g id="Group_51" data-name="Group 51" transform="translate(-3.529 -3.371)">
        <g id="Group_50" data-name="Group 50" clip-path="url(#clip-path-3)">
          <path id="Path_76" data-name="Path 76" d="M-1.769-68.007H142.837V76.6H-1.769Z" transform="translate(1.769 68.008)" fill="none"/>
        </g>
      </g>
      <g id="Group_52" data-name="Group 52" transform="translate(0.25 0.249)">
        <path id="Path_77" data-name="Path 77" d="M32.872,65.745A65.907,65.907,0,0,0,98.779-.162,65.907,65.907,0,0,0,32.872-66.068,65.907,65.907,0,0,0-33.034-.162,65.907,65.907,0,0,0,32.872,65.745" transform="translate(33.034 66.068)" fill="none"/>
      </g>
      <g id="Group_53" data-name="Group 53" transform="translate(0.25 0.249)">
        <path id="Path_78" data-name="Path 78" d="M32.872,65.745A65.907,65.907,0,0,0,98.779-.162,65.907,65.907,0,0,0,32.872-66.068,65.907,65.907,0,0,0-33.034-.162,65.907,65.907,0,0,0,32.872,65.745Z" transform="translate(33.034 66.068)" fill="none"/>
      </g>
      <g id="Group_54" data-name="Group 54" transform="translate(5.319 5.319)">
        <path id="Path_79" data-name="Path 79" d="M30.344,60.688A60.906,60.906,0,0,0,91.181-.149,60.906,60.906,0,0,0,30.344-60.986,60.906,60.906,0,0,0-30.493-.149,60.906,60.906,0,0,0,30.344,60.688" transform="translate(30.493 60.986)" fill="none"/>
      </g>
      <g id="Group_55" data-name="Group 55" transform="translate(5.319 5.319)">
        <path id="Path_80" data-name="Path 80" d="M30.344,60.688A60.906,60.906,0,0,0,91.181-.149,60.906,60.906,0,0,0,30.344-60.986,60.906,60.906,0,0,0-30.493-.149,60.906,60.906,0,0,0,30.344,60.688Z" transform="translate(30.493 60.986)" fill="#fff" stroke="#d30d23" stroke-width="3"/>
      </g>
    </g>
    <g id="Group_60" data-name="Group 60" transform="translate(0.156 -66.318)" clip-path="url(#clip-path)">
      <g id="Group_57" data-name="Group 57" transform="translate(35.129 20.71)">
        <path id="Path_82" data-name="Path 82" d="M21.329,16.641c-.8-1.466-1.448-2.715-2.077-3.639-1.826-2.683-4.764-.459-7.214-1.211-1.181-.361-2.217-1.375-2.985-3.8C8.714,6.925,8.99,6.6,9.51,6.424c.447-.152,2.33-.8,2.957-1.045C17.2,3.5,14.42,3.116,19.34.578c0,0-.283-1.816-.361-2.719-.148-1.672.207-1.839,1.153-.666.748.926,1.4,1.732,1.4,1.732.275.323.529.383.642-.136l.646-3.36c.309-1.9.9-1.931,1.841-.207a20.945,20.945,0,0,0,5.546,6.925c3.4,3.043,2.935,8,.5,11.993-.345.543-.419.96-.118,1.343.239.3.668.471,1.4.207a12.845,12.845,0,0,0,7.7-16.877A17.958,17.958,0,0,0,25.03-12.4a17.49,17.49,0,0,0-10.169,1.951,10.17,10.17,0,0,0-.856-2.069c-2.041-3.7-6.328-5.255-9.577-3.466-2.785,1.47-4.457,5.624-2.185,9.948A8.293,8.293,0,0,0,6.39-2.319,14.582,14.582,0,0,0,4.253,4.014c-.032.321-.122.5-.331.525s-.343-.162-.447-.581a10.371,10.371,0,0,1,.371-5.024,9.383,9.383,0,0,1-5.117-9.994H-16.235c-2.771,0-4.006,2.628-4.006,4.453h0c0,2.316,1.173,4.519,4.006,4.519H-5.172c.806,0,.9.527.465.912h0L-9.868,3.345a3.316,3.316,0,0,0-1.3,3.106c.18,1.395,1.239,2.634,4.126,2.634h.914c3.178-.016,5.421,1.155,5.421,4.377,0,2.33-1.875,4.561-5.407,4.585-3.064.02-5.461-1.275-8-3.926-1.5-1.564-3.587-1.82-5.634.142-1.61,1.542-2.478,3.579-.656,5.72A19.226,19.226,0,0,0-6.02,26.774,18.6,18.6,0,0,0,8.257,19.817a18,18,0,0,0,14.191,6.951,18.6,18.6,0,0,0,16.093-9.283c.325-.583.626-1.345.022-1.7a1.041,1.041,0,0,0-1.311.213c-3.278,2.763-13.01,5.776-15.923.646" transform="translate(21.434 16.723)" fill="#d30d23"/>
      </g>
      <g id="Group_58" data-name="Group 58" transform="translate(53.554 111.369)">
        <path id="Path_83" data-name="Path 83" d="M2.035,2.682a2.5,2.5,0,0,0-3.4-.511,2.334,2.334,0,0,0,.046,3.344,2.5,2.5,0,0,0,3.4.509,2.332,2.332,0,0,0-.048-3.342m10.7,2.1a3.569,3.569,0,0,0,3.91-3.154,3.565,3.565,0,0,0-2.624-4.282A3.572,3.572,0,0,0,10.108.5a3.562,3.562,0,0,0,2.624,4.28m-5.8-.672A3.093,3.093,0,0,0,8.705.063,3.268,3.268,0,0,0,4.859-2.316,3.088,3.088,0,0,0,3.083,1.73a3.268,3.268,0,0,0,3.845,2.38m13.126-1.2a2.284,2.284,0,0,0-3.025.938,2.175,2.175,0,0,0,.5,3.064,2.285,2.285,0,0,0,3.025-.94,2.173,2.173,0,0,0-.5-3.062" transform="translate(2.045 2.695)" fill="#d30d23"/>
      </g>
      <g id="Group_59" data-name="Group 59" transform="translate(57.02 119.664)">
        <path id="Path_84" data-name="Path 84" d="M.157,2.158c1.1-2.687,3.759-4.541,7.9-4.307s6.111,2.723,7.38,5.335a3.985,3.985,0,0,1-2,5.145c-1.225.507-2.715-.742-5.824-.816-3.021-.166-4.481.686-5.6.122A4.389,4.389,0,0,1,.157,2.158" transform="translate(0.157 2.169)" fill="#d30d23"/>
      </g>
    </g>
    <text id="proteger" transform="translate(30.156 18.413)" font-size="14" font-family="Mabrouk"><tspan x="0" y="0">proteger</tspan></text>
  </g>
</svg>
